<?xml version="1.0" standalone="no"?>
<!DOCTYPE svg PUBLIC "-//W3C//DTD SVG 20010904//EN"
 "http://www.w3.org/TR/2001/REC-SVG-20010904/DTD/svg10.dtd">
<svg version="1.0" xmlns="http://www.w3.org/2000/svg"
 width="700.000000pt" height="700.000000pt" viewBox="0 0 700.000000 700.000000"
 preserveAspectRatio="xMidYMid meet">
<metadata>
Created by potrace 1.11, written by Peter Selinger 2001-2013
</metadata>
<g transform="translate(0.000000,700.000000) scale(0.100000,-0.100000)"
fill="#000000" stroke="none">
<path d="M3308 6495 c-1 -1 -44 -6 -94 -9 -49 -4 -102 -9 -117 -11 -15 -3 -39
-7 -54 -10 -14 -2 -47 -7 -72 -11 -59 -8 -59 -8 -166 -34 -326 -76 -636 -209
-929 -397 -103 -67 -244 -167 -261 -187 -5 -6 -32 -29 -60 -51 -86 -68 -298
-285 -388 -398 -164 -204 -305 -434 -415 -677 -112 -248 -204 -586 -228 -835
-3 -33 -9 -89 -14 -125 -7 -63 -5 -470 3 -540 3 -19 8 -66 12 -105 4 -38 9
-73 11 -76 1 -3 6 -28 9 -55 13 -92 65 -298 111 -434 107 -313 277 -631 474
-881 25 -31 58 -74 75 -95 42 -55 301 -313 355 -355 24 -18 52 -41 61 -49 35
-33 228 -171 274 -196 11 -6 52 -31 90 -54 122 -76 385 -196 540 -248 240 -81
454 -127 695 -149 153 -14 612 -6 680 12 8 2 32 6 53 9 142 22 134 20 242 46
95 22 246 65 280 79 11 5 43 17 70 26 28 10 74 28 103 41 29 13 55 24 58 24
20 0 294 147 377 202 32 21 61 38 64 38 9 0 182 128 268 199 105 85 315 295
396 396 207 257 357 508 473 792 39 96 109 304 120 358 3 11 12 52 21 90 18
74 20 86 30 150 5 35 9 60 21 127 25 145 24 640 -2 805 -2 16 -6 42 -9 58 -2
17 -7 48 -10 70 -4 22 -8 48 -11 57 -3 10 -7 30 -10 45 -44 249 -201 644 -360
905 -57 95 -190 289 -222 324 -9 11 -39 46 -66 79 -50 60 -246 259 -321 325
-278 247 -730 496 -1085 600 -41 12 -86 25 -100 30 -23 7 -130 31 -147 32 -5
0 -17 4 -29 8 -11 5 -45 11 -74 15 -29 4 -62 9 -74 11 -12 2 -43 7 -71 10 -27
3 -63 7 -80 10 -34 6 -491 14 -497 9z m387 -880 c188 -17 424 -69 540 -120 17
-7 41 -16 55 -20 41 -12 250 -118 325 -165 179 -112 413 -316 532 -465 143
-178 265 -391 346 -605 41 -107 93 -304 103 -389 3 -31 8 -59 10 -62 14 -25
22 -341 10 -478 -13 -158 -66 -413 -106 -506 -5 -11 -18 -47 -30 -80 -26 -73
-115 -252 -167 -335 -169 -271 -411 -516 -678 -687 -113 -71 -268 -149 -405
-201 -100 -38 -264 -81 -370 -97 -20 -3 -47 -7 -60 -10 -117 -22 -473 -23
-589 0 -12 2 -42 7 -65 9 -43 6 -52 8 -131 26 -27 6 -60 14 -72 16 -58 11
-286 99 -382 148 -91 45 -247 137 -285 167 -296 233 -437 384 -589 630 -50 82
-150 278 -162 319 -4 14 -13 39 -20 55 -13 28 -52 150 -60 185 -2 8 -9 38 -15
65 -60 261 -70 564 -26 835 8 47 16 94 19 106 55 226 92 327 184 509 161 317
399 587 705 798 38 26 71 47 74 47 3 0 18 9 33 19 43 31 240 127 326 159 137
51 291 92 400 108 28 3 59 8 69 10 10 2 58 6 105 10 47 4 87 7 88 8 5 4 221
-3 288 -9z"/>
<path d="M3498 4559 l-998 -499 0 -1060 0 -1060 1000 501 1000 500 0 1059 c0
583 -1 1060 -2 1059 -2 0 -452 -225 -1000 -500z m492 -1309 c0 -3 -223 -116
-495 -253 l-495 -247 0 500 0 500 495 -247 c272 -137 495 -250 495 -253z"/>
</g>
</svg>
